<svg xmlns="http://www.w3.org/2000/svg" viewBox="0 0 260 230" fill="none">
  <defs>
    <linearGradient id="paint-green_window_svg" x1="36" y1="34" x2="226" y2="202" gradientUnits="userSpaceOnUse">
      <stop offset="0" stop-color="#ffffff" stop-opacity="0.32"/>
      <stop offset="0.23" stop-color="#68b844"/>
      <stop offset="1" stop-color="#42912e"/>
    </linearGradient>
    <filter id="soft-green_window_svg" x="-20%" y="-20%" width="140%" height="140%" color-interpolation-filters="sRGB">
      <feDropShadow dx="3" dy="5" stdDeviation="3" flood-color="#2a2118" flood-opacity="0.16"/>
    </filter>
  </defs>
  <g transform="translate(130.0 115.0) rotate(-7) translate(-130.0 -115.0)">
    <g opacity="0.22" fill="#42912e" stroke="#42912e" stroke-width="5" stroke-linecap="round" stroke-linejoin="round" transform="translate(3 5)">

    <path d="M45 101C57 71 83 59 111 69C130 33 172 41 180 78C212 72 238 96 229 128C254 148 235 181 205 174C194 207 152 203 140 171C109 192 76 176 78 141C49 146 31 122 45 101Z"/>
    <ellipse cx="28" cy="78" rx="19" ry="11" transform="rotate(-42 28 78)"/>
    <ellipse cx="77" cy="42" rx="18" ry="13" transform="rotate(34 77 42)"/>
    <ellipse cx="206" cy="55" rx="17" ry="22" transform="rotate(-35 206 55)"/>
    <ellipse cx="230" cy="151" rx="13" ry="20" transform="rotate(36 230 151)"/>
    <ellipse cx="91" cy="190" rx="15" ry="20" transform="rotate(-20 91 190)"/>
    <circle cx="180" cy="190" r="13"/>
    </g>
    <g filter="url(#soft-green_window_svg)" fill="url(#paint-green_window_svg)" stroke="#42912e" stroke-width="4" stroke-linecap="round" stroke-linejoin="round">

    <path d="M45 101C57 71 83 59 111 69C130 33 172 41 180 78C212 72 238 96 229 128C254 148 235 181 205 174C194 207 152 203 140 171C109 192 76 176 78 141C49 146 31 122 45 101Z"/>
    <ellipse cx="28" cy="78" rx="19" ry="11" transform="rotate(-42 28 78)"/>
    <ellipse cx="77" cy="42" rx="18" ry="13" transform="rotate(34 77 42)"/>
    <ellipse cx="206" cy="55" rx="17" ry="22" transform="rotate(-35 206 55)"/>
    <ellipse cx="230" cy="151" rx="13" ry="20" transform="rotate(36 230 151)"/>
    <ellipse cx="91" cy="190" rx="15" ry="20" transform="rotate(-20 91 190)"/>
    <circle cx="180" cy="190" r="13"/>
    </g>
  <g fill="none" stroke="#ffffff" stroke-width="5" stroke-linecap="round" opacity="0.42">
    <path d="M82 99C99 82 127 83 139 98"/>
    <path d="M151 88C166 79 185 83 196 96"/>
  </g>
  <g fill="#ffffff" opacity="0.38">
    <ellipse cx="119" cy="92" rx="9" ry="5" transform="rotate(-12 119 92)"/>
    <circle cx="173" cy="116" r="5"/>
  </g>
  </g>
</svg>
