<svg xmlns="http://www.w3.org/2000/svg" viewBox="0 0 260 230" fill="none">
  <defs>
    <linearGradient id="paint-orange_window_svg" x1="36" y1="34" x2="226" y2="202" gradientUnits="userSpaceOnUse">
      <stop offset="0" stop-color="#ffffff" stop-opacity="0.32"/>
      <stop offset="0.23" stop-color="#f08a32"/>
      <stop offset="1" stop-color="#c2601e"/>
    </linearGradient>
    <filter id="soft-orange_window_svg" x="-20%" y="-20%" width="140%" height="140%" color-interpolation-filters="sRGB">
      <feDropShadow dx="3" dy="5" stdDeviation="3" flood-color="#2a2118" flood-opacity="0.16"/>
    </filter>
  </defs>
  <g transform="translate(130.0 115.0) rotate(8) translate(-130.0 -115.0)">
    <g opacity="0.22" fill="#c2601e" stroke="#c2601e" stroke-width="5" stroke-linecap="round" stroke-linejoin="round" transform="translate(3 5)">

    <path d="M48 126C38 92 64 62 100 67C121 35 158 43 169 75C205 62 235 89 229 124C254 138 248 171 219 174C212 205 171 207 151 181C125 207 86 191 88 155C58 161 37 149 48 126Z"/>
    <ellipse cx="35" cy="92" rx="16" ry="23" transform="rotate(58 35 92)"/>
    <ellipse cx="91" cy="44" rx="21" ry="12" transform="rotate(-22 91 44)"/>
    <ellipse cx="190" cy="50" rx="14" ry="21" transform="rotate(26 190 50)"/>
    <ellipse cx="241" cy="134" rx="11" ry="19" transform="rotate(-12 241 134)"/>
    <ellipse cx="70" cy="187" rx="20" ry="13" transform="rotate(35 70 187)"/>
    <circle cx="209" cy="190" r="13"/>
    </g>
    <g filter="url(#soft-orange_window_svg)" fill="url(#paint-orange_window_svg)" stroke="#c2601e" stroke-width="4" stroke-linecap="round" stroke-linejoin="round">

    <path d="M48 126C38 92 64 62 100 67C121 35 158 43 169 75C205 62 235 89 229 124C254 138 248 171 219 174C212 205 171 207 151 181C125 207 86 191 88 155C58 161 37 149 48 126Z"/>
    <ellipse cx="35" cy="92" rx="16" ry="23" transform="rotate(58 35 92)"/>
    <ellipse cx="91" cy="44" rx="21" ry="12" transform="rotate(-22 91 44)"/>
    <ellipse cx="190" cy="50" rx="14" ry="21" transform="rotate(26 190 50)"/>
    <ellipse cx="241" cy="134" rx="11" ry="19" transform="rotate(-12 241 134)"/>
    <ellipse cx="70" cy="187" rx="20" ry="13" transform="rotate(35 70 187)"/>
    <circle cx="209" cy="190" r="13"/>
    </g>
  <g fill="none" stroke="#ffffff" stroke-width="5" stroke-linecap="round" opacity="0.42">
    <path d="M78 112C95 91 127 91 141 106"/>
    <path d="M157 89C171 81 191 85 203 99"/>
  </g>
  <g fill="#ffffff" opacity="0.38">
    <ellipse cx="118" cy="101" rx="9" ry="6" transform="rotate(-10 118 101)"/>
    <circle cx="184" cy="127" r="5"/>
  </g>
  </g>
</svg>
