<svg xmlns="http://www.w3.org/2000/svg" viewBox="0 0 260 230" fill="none">
  <defs>
    <linearGradient id="paint-pink_window_svg" x1="36" y1="34" x2="226" y2="202" gradientUnits="userSpaceOnUse">
      <stop offset="0" stop-color="#ffffff" stop-opacity="0.32"/>
      <stop offset="0.23" stop-color="#e786c5"/>
      <stop offset="1" stop-color="#c64c9f"/>
    </linearGradient>
    <filter id="soft-pink_window_svg" x="-20%" y="-20%" width="140%" height="140%" color-interpolation-filters="sRGB">
      <feDropShadow dx="3" dy="5" stdDeviation="3" flood-color="#2a2118" flood-opacity="0.16"/>
    </filter>
  </defs>
  <g transform="translate(130.0 115.0) rotate(-4) translate(-130.0 -115.0)">
    <g opacity="0.22" fill="#c64c9f" stroke="#c64c9f" stroke-width="5" stroke-linecap="round" stroke-linejoin="round" transform="translate(3 5)">

    <path d="M36 118C35 86 63 61 94 70C105 33 146 28 164 58C190 43 226 57 231 91C260 98 257 136 228 144C235 178 198 199 173 176C150 204 105 199 98 163C64 174 33 151 36 118Z"/>
    <ellipse cx="29" cy="88" rx="23" ry="12" transform="rotate(-31 29 88)"/>
    <ellipse cx="72" cy="45" rx="16" ry="21" transform="rotate(42 72 45)"/>
    <ellipse cx="200" cy="39" rx="21" ry="12" transform="rotate(-18 200 39)"/>
    <ellipse cx="239" cy="128" rx="13" ry="21" transform="rotate(25 239 128)"/>
    <ellipse cx="74" cy="191" rx="17" ry="24" transform="rotate(30 74 191)"/>
    <circle cx="217" cy="185" r="14"/>
    </g>
    <g filter="url(#soft-pink_window_svg)" fill="url(#paint-pink_window_svg)" stroke="#c64c9f" stroke-width="4" stroke-linecap="round" stroke-linejoin="round">

    <path d="M36 118C35 86 63 61 94 70C105 33 146 28 164 58C190 43 226 57 231 91C260 98 257 136 228 144C235 178 198 199 173 176C150 204 105 199 98 163C64 174 33 151 36 118Z"/>
    <ellipse cx="29" cy="88" rx="23" ry="12" transform="rotate(-31 29 88)"/>
    <ellipse cx="72" cy="45" rx="16" ry="21" transform="rotate(42 72 45)"/>
    <ellipse cx="200" cy="39" rx="21" ry="12" transform="rotate(-18 200 39)"/>
    <ellipse cx="239" cy="128" rx="13" ry="21" transform="rotate(25 239 128)"/>
    <ellipse cx="74" cy="191" rx="17" ry="24" transform="rotate(30 74 191)"/>
    <circle cx="217" cy="185" r="14"/>
    </g>
  <g fill="none" stroke="#ffffff" stroke-width="5" stroke-linecap="round" opacity="0.42">
    <path d="M77 102C94 82 122 80 137 95"/>
    <path d="M154 78C169 67 188 69 201 82"/>
  </g>
  <g fill="#ffffff" opacity="0.38">
    <ellipse cx="116" cy="92" rx="10" ry="6" transform="rotate(-15 116 92)"/>
    <circle cx="183" cy="112" r="5"/>
  </g>
  </g>
</svg>
