<svg xmlns="http://www.w3.org/2000/svg" viewBox="0 0 260 230" fill="none">
  <defs>
    <linearGradient id="paint-purple_bubble_svg" x1="36" y1="34" x2="226" y2="202" gradientUnits="userSpaceOnUse">
      <stop offset="0" stop-color="#ffffff" stop-opacity="0.32"/>
      <stop offset="0.23" stop-color="#a985ee"/>
      <stop offset="1" stop-color="#7a55c9"/>
    </linearGradient>
    <filter id="soft-purple_bubble_svg" x="-20%" y="-20%" width="140%" height="140%" color-interpolation-filters="sRGB">
      <feDropShadow dx="3" dy="5" stdDeviation="3" flood-color="#2a2118" flood-opacity="0.16"/>
    </filter>
  </defs>
  <g transform="translate(130.0 115.0) rotate(3) translate(-130.0 -115.0)">
    <g opacity="0.22" fill="#7a55c9" stroke="#7a55c9" stroke-width="5" stroke-linecap="round" stroke-linejoin="round" transform="translate(3 5)">

    <path d="M62 139C40 101 70 58 116 63C144 66 151 91 172 96C200 103 229 82 244 111C261 144 223 164 203 151C181 137 170 159 150 174C115 198 80 173 62 139Z"/>
    <ellipse cx="54" cy="77" rx="22" ry="15" transform="rotate(-9 54 77)"/>
    <ellipse cx="96" cy="42" rx="16" ry="13"/>
    <ellipse cx="151" cy="45" rx="12" ry="10"/>
    <ellipse cx="30" cy="142" rx="13" ry="20" transform="rotate(31 30 142)"/>
    <circle cx="214" cy="174" r="12"/>
    </g>
    <g filter="url(#soft-purple_bubble_svg)" fill="url(#paint-purple_bubble_svg)" stroke="#7a55c9" stroke-width="4" stroke-linecap="round" stroke-linejoin="round">

    <path d="M62 139C40 101 70 58 116 63C144 66 151 91 172 96C200 103 229 82 244 111C261 144 223 164 203 151C181 137 170 159 150 174C115 198 80 173 62 139Z"/>
    <ellipse cx="54" cy="77" rx="22" ry="15" transform="rotate(-9 54 77)"/>
    <ellipse cx="96" cy="42" rx="16" ry="13"/>
    <ellipse cx="151" cy="45" rx="12" ry="10"/>
    <ellipse cx="30" cy="142" rx="13" ry="20" transform="rotate(31 30 142)"/>
    <circle cx="214" cy="174" r="12"/>
    </g>
  <g fill="none" stroke="#ffffff" stroke-width="5" stroke-linecap="round" opacity="0.42">
    <path d="M82 116C100 94 137 92 153 111"/>
    <path d="M176 119C191 111 209 113 219 123"/>
  </g>
  <g fill="#ffffff" opacity="0.38">
    <ellipse cx="113" cy="108" rx="10" ry="6" transform="rotate(-15 113 108)"/>
    <circle cx="165" cy="132" r="5"/>
  </g>
  </g>
</svg>
