<svg xmlns="http://www.w3.org/2000/svg" viewBox="0 0 260 240" fill="none">
  <defs>
    <linearGradient id="paint-red_drip_svg" x1="36" y1="34" x2="226" y2="202" gradientUnits="userSpaceOnUse">
      <stop offset="0" stop-color="#ffffff" stop-opacity="0.32"/>
      <stop offset="0.23" stop-color="#ef3f39"/>
      <stop offset="1" stop-color="#bd2528"/>
    </linearGradient>
    <filter id="soft-red_drip_svg" x="-20%" y="-20%" width="140%" height="140%" color-interpolation-filters="sRGB">
      <feDropShadow dx="3" dy="5" stdDeviation="3" flood-color="#2a2118" flood-opacity="0.16"/>
    </filter>
  </defs>
  <g transform="translate(130.0 120.0) rotate(-2) translate(-130.0 -120.0)">
    <g opacity="0.22" fill="#bd2528" stroke="#bd2528" stroke-width="5" stroke-linecap="round" stroke-linejoin="round" transform="translate(3 5)">

    <path d="M35 119C51 56 135 31 184 64C238 100 224 164 179 181C136 197 107 169 78 187C50 204 20 174 35 119Z"/>
    <path d="M127 176C118 199 121 218 110 228" fill="none" stroke-linecap="round"/>
    <path d="M172 169C164 194 175 210 163 229" fill="none" stroke-linecap="round"/>
    <path d="M76 178C64 197 69 215 57 226" fill="none" stroke-linecap="round"/>
    <ellipse cx="211" cy="96" rx="15" ry="23" transform="rotate(37 211 96)"/>
    </g>
    <g filter="url(#soft-red_drip_svg)" fill="url(#paint-red_drip_svg)" stroke="#bd2528" stroke-width="4" stroke-linecap="round" stroke-linejoin="round">

    <path d="M35 119C51 56 135 31 184 64C238 100 224 164 179 181C136 197 107 169 78 187C50 204 20 174 35 119Z"/>
    <path d="M127 176C118 199 121 218 110 228" fill="none" stroke-linecap="round"/>
    <path d="M172 169C164 194 175 210 163 229" fill="none" stroke-linecap="round"/>
    <path d="M76 178C64 197 69 215 57 226" fill="none" stroke-linecap="round"/>
    <ellipse cx="211" cy="96" rx="15" ry="23" transform="rotate(37 211 96)"/>
    </g>
  <g fill="none" stroke="#ffffff" stroke-width="5" stroke-linecap="round" opacity="0.42">
    <path d="M76 104C99 78 149 72 176 92"/>
    <path d="M69 136C83 128 99 128 110 138"/>
  </g>
  <g fill="#ffffff" opacity="0.38">
    <ellipse cx="124" cy="86" rx="11" ry="6" transform="rotate(-10 124 86)"/>
    <circle cx="173" cy="120" r="5"/>
  </g>
  </g>
</svg>
