<svg xmlns="http://www.w3.org/2000/svg" viewBox="0 0 260 230" fill="none">
  <defs>
    <linearGradient id="paint-yellow_window_svg" x1="36" y1="34" x2="226" y2="202" gradientUnits="userSpaceOnUse">
      <stop offset="0" stop-color="#ffffff" stop-opacity="0.32"/>
      <stop offset="0.23" stop-color="#f1c535"/>
      <stop offset="1" stop-color="#c99816"/>
    </linearGradient>
    <filter id="soft-yellow_window_svg" x="-20%" y="-20%" width="140%" height="140%" color-interpolation-filters="sRGB">
      <feDropShadow dx="3" dy="5" stdDeviation="3" flood-color="#2a2118" flood-opacity="0.16"/>
    </filter>
  </defs>
  <g transform="translate(130.0 115.0) rotate(6) translate(-130.0 -115.0)">
    <g opacity="0.22" fill="#c99816" stroke="#c99816" stroke-width="5" stroke-linecap="round" stroke-linejoin="round" transform="translate(3 5)">

    <path d="M54 104C63 72 94 58 122 73C142 38 184 48 190 83C224 83 242 112 226 140C247 162 222 193 192 183C178 215 134 207 127 171C94 191 61 169 68 133C41 128 34 112 54 104Z"/>
    <ellipse cx="48" cy="74" rx="14" ry="24" transform="rotate(48 48 74)"/>
    <ellipse cx="116" cy="42" rx="15" ry="20" transform="rotate(-16 116 42)"/>
    <ellipse cx="215" cy="76" rx="22" ry="13" transform="rotate(18 215 76)"/>
    <ellipse cx="231" cy="161" rx="12" ry="18" transform="rotate(-34 231 161)"/>
    <ellipse cx="91" cy="196" rx="13" ry="21" transform="rotate(-18 91 196)"/>
    <circle cx="157" cy="197" r="13"/>
    </g>
    <g filter="url(#soft-yellow_window_svg)" fill="url(#paint-yellow_window_svg)" stroke="#c99816" stroke-width="4" stroke-linecap="round" stroke-linejoin="round">

    <path d="M54 104C63 72 94 58 122 73C142 38 184 48 190 83C224 83 242 112 226 140C247 162 222 193 192 183C178 215 134 207 127 171C94 191 61 169 68 133C41 128 34 112 54 104Z"/>
    <ellipse cx="48" cy="74" rx="14" ry="24" transform="rotate(48 48 74)"/>
    <ellipse cx="116" cy="42" rx="15" ry="20" transform="rotate(-16 116 42)"/>
    <ellipse cx="215" cy="76" rx="22" ry="13" transform="rotate(18 215 76)"/>
    <ellipse cx="231" cy="161" rx="12" ry="18" transform="rotate(-34 231 161)"/>
    <ellipse cx="91" cy="196" rx="13" ry="21" transform="rotate(-18 91 196)"/>
    <circle cx="157" cy="197" r="13"/>
    </g>
  <g fill="none" stroke="#ffffff" stroke-width="5" stroke-linecap="round" opacity="0.42">
    <path d="M84 107C101 88 130 88 143 103"/>
    <path d="M157 96C173 85 194 90 203 105"/>
  </g>
  <g fill="#ffffff" opacity="0.38">
    <ellipse cx="122" cy="99" rx="9" ry="6" transform="rotate(-8 122 99)"/>
    <circle cx="178" cy="131" r="5"/>
  </g>
  </g>
</svg>
