<svg xmlns="http://www.w3.org/2000/svg" viewBox="0 0 260 230" fill="none">
  <defs>
    <linearGradient id="paint-yellow_bubble_svg" x1="36" y1="34" x2="226" y2="202" gradientUnits="userSpaceOnUse">
      <stop offset="0" stop-color="#ffffff" stop-opacity="0.32"/>
      <stop offset="0.23" stop-color="#f1c535"/>
      <stop offset="1" stop-color="#c99816"/>
    </linearGradient>
    <filter id="soft-yellow_bubble_svg" x="-20%" y="-20%" width="140%" height="140%" color-interpolation-filters="sRGB">
      <feDropShadow dx="3" dy="5" stdDeviation="3" flood-color="#2a2118" flood-opacity="0.16"/>
    </filter>
  </defs>
  <g transform="translate(130.0 115.0) rotate(-6) translate(-130.0 -115.0)">
    <g opacity="0.22" fill="#c99816" stroke="#c99816" stroke-width="5" stroke-linecap="round" stroke-linejoin="round" transform="translate(3 5)">

    <path d="M55 129C38 95 64 61 105 62C132 63 142 83 158 94C184 111 222 81 240 113C257 143 229 165 203 154C180 145 173 167 151 181C118 202 78 168 55 129Z"/>
    <ellipse cx="49" cy="72" rx="20" ry="13" transform="rotate(16 49 72)"/>
    <ellipse cx="103" cy="39" rx="13" ry="17" transform="rotate(-14 103 39)"/>
    <ellipse cx="161" cy="43" rx="12" ry="10"/>
    <ellipse cx="30" cy="136" rx="12" ry="22" transform="rotate(39 30 136)"/>
    <ellipse cx="212" cy="175" rx="17" ry="11" transform="rotate(-23 212 175)"/>
    </g>
    <g filter="url(#soft-yellow_bubble_svg)" fill="url(#paint-yellow_bubble_svg)" stroke="#c99816" stroke-width="4" stroke-linecap="round" stroke-linejoin="round">

    <path d="M55 129C38 95 64 61 105 62C132 63 142 83 158 94C184 111 222 81 240 113C257 143 229 165 203 154C180 145 173 167 151 181C118 202 78 168 55 129Z"/>
    <ellipse cx="49" cy="72" rx="20" ry="13" transform="rotate(16 49 72)"/>
    <ellipse cx="103" cy="39" rx="13" ry="17" transform="rotate(-14 103 39)"/>
    <ellipse cx="161" cy="43" rx="12" ry="10"/>
    <ellipse cx="30" cy="136" rx="12" ry="22" transform="rotate(39 30 136)"/>
    <ellipse cx="212" cy="175" rx="17" ry="11" transform="rotate(-23 212 175)"/>
    </g>
  <g fill="none" stroke="#ffffff" stroke-width="5" stroke-linecap="round" opacity="0.42">
    <path d="M78 107C99 87 131 89 146 108"/>
    <path d="M169 121C183 114 203 116 214 128"/>
  </g>
  <g fill="#ffffff" opacity="0.38">
    <ellipse cx="111" cy="101" rx="9" ry="5" transform="rotate(-11 111 101)"/>
    <circle cx="162" cy="139" r="5"/>
  </g>
  </g>
</svg>
